<svg xmlns="http://www.w3.org/2000/svg" xmlns:xlink="http://www.w3.org/1999/xlink" width="500" zoomAndPan="magnify" viewBox="0 0 375 374.999991" height="500" preserveAspectRatio="xMidYMid meet" version="1.0"><defs><g/><clipPath id="84c967d0eb"><path d="M 7.148438 134.636719 L 73 134.636719 L 73 201 L 7.148438 201 Z M 7.148438 134.636719 " clip-rule="nonzero"/></clipPath><clipPath id="690eafabff"><path d="M 14 159 L 117.398438 159 L 117.398438 235.136719 L 14 235.136719 Z M 14 159 " clip-rule="nonzero"/></clipPath><clipPath id="9cd33011d0"><path d="M 108.800781 149.898438 L 129 149.898438 L 129 170 L 108.800781 170 Z M 108.800781 149.898438 " clip-rule="nonzero"/></clipPath></defs><g clip-path="url(#84c967d0eb)"><path fill="#022031" d="M 72.4375 167.347656 C 72.4375 167.871094 72.386719 168.386719 72.285156 168.894531 C 72.183594 169.40625 72.035156 169.902344 71.835938 170.382812 C 71.636719 170.863281 71.390625 171.320312 71.101562 171.753906 C 70.8125 172.1875 70.484375 172.589844 70.117188 172.957031 C 69.75 173.324219 69.347656 173.652344 68.914062 173.941406 C 68.480469 174.230469 68.023438 174.476562 67.542969 174.675781 C 67.0625 174.875 66.566406 175.027344 66.054688 175.128906 C 65.546875 175.230469 65.03125 175.28125 64.507812 175.28125 L 53.039062 175.28125 C 52.699219 175.28125 52.359375 175.3125 52.023438 175.378906 C 51.691406 175.445312 51.367188 175.542969 51.050781 175.675781 C 50.734375 175.804688 50.433594 175.964844 50.152344 176.15625 C 49.867188 176.34375 49.605469 176.558594 49.363281 176.800781 C 49.121094 177.042969 48.90625 177.304688 48.71875 177.589844 C 48.527344 177.875 48.367188 178.171875 48.238281 178.488281 C 48.105469 178.804688 48.007812 179.128906 47.941406 179.464844 C 47.875 179.796875 47.839844 180.136719 47.839844 180.476562 L 47.839844 192.710938 C 47.839844 193.234375 47.789062 193.75 47.6875 194.257812 C 47.585938 194.769531 47.4375 195.265625 47.238281 195.746094 C 47.039062 196.226562 46.792969 196.683594 46.503906 197.117188 C 46.214844 197.550781 45.886719 197.953125 45.519531 198.320312 C 45.152344 198.6875 44.75 199.015625 44.316406 199.304688 C 43.882812 199.59375 43.425781 199.839844 42.945312 200.039062 C 42.464844 200.238281 41.96875 200.390625 41.457031 200.492188 C 40.949219 200.59375 40.433594 200.644531 39.910156 200.644531 C 39.390625 200.644531 38.875 200.59375 38.363281 200.492188 C 37.851562 200.390625 37.359375 200.238281 36.875 200.039062 C 36.394531 199.839844 35.9375 199.59375 35.503906 199.304688 C 35.074219 199.015625 34.671875 198.6875 34.304688 198.320312 C 33.9375 197.953125 33.605469 197.550781 33.316406 197.117188 C 33.027344 196.683594 32.785156 196.226562 32.585938 195.746094 C 32.386719 195.265625 32.234375 194.769531 32.132812 194.257812 C 32.03125 193.75 31.980469 193.234375 31.980469 192.710938 L 31.980469 180.476562 C 31.980469 180.136719 31.949219 179.796875 31.882812 179.464844 C 31.816406 179.128906 31.714844 178.804688 31.585938 178.488281 C 31.453125 178.171875 31.292969 177.875 31.105469 177.589844 C 30.914062 177.304688 30.699219 177.042969 30.457031 176.800781 C 30.21875 176.558594 29.953125 176.34375 29.671875 176.15625 C 29.386719 175.964844 29.085938 175.804688 28.773438 175.675781 C 28.457031 175.542969 28.132812 175.445312 27.796875 175.378906 C 27.460938 175.3125 27.125 175.28125 26.785156 175.28125 L 15.113281 175.28125 C 14.589844 175.28125 14.074219 175.230469 13.566406 175.128906 C 13.054688 175.027344 12.558594 174.875 12.078125 174.675781 C 11.597656 174.476562 11.140625 174.230469 10.707031 173.941406 C 10.273438 173.652344 9.871094 173.324219 9.503906 172.957031 C 9.136719 172.589844 8.808594 172.1875 8.519531 171.753906 C 8.230469 171.320312 7.984375 170.863281 7.785156 170.382812 C 7.585938 169.902344 7.4375 169.40625 7.335938 168.894531 C 7.234375 168.386719 7.183594 167.871094 7.183594 167.347656 C 7.183594 166.828125 7.234375 166.3125 7.335938 165.800781 C 7.4375 165.292969 7.585938 164.796875 7.785156 164.316406 C 7.984375 163.832031 8.230469 163.375 8.519531 162.945312 C 8.808594 162.511719 9.136719 162.109375 9.503906 161.742188 C 9.871094 161.375 10.273438 161.042969 10.707031 160.753906 C 11.140625 160.464844 11.597656 160.222656 12.078125 160.023438 C 12.558594 159.824219 13.054688 159.671875 13.566406 159.570312 C 14.074219 159.46875 14.589844 159.417969 15.113281 159.417969 L 26.785156 159.417969 C 27.128906 159.417969 27.464844 159.386719 27.800781 159.320312 C 28.136719 159.253906 28.460938 159.152344 28.773438 159.023438 C 29.089844 158.894531 29.390625 158.734375 29.675781 158.542969 C 29.957031 158.351562 30.21875 158.136719 30.460938 157.898438 C 30.703125 157.65625 30.917969 157.394531 31.109375 157.109375 C 31.296875 156.824219 31.457031 156.527344 31.589844 156.210938 C 31.71875 155.894531 31.816406 155.570312 31.882812 155.234375 C 31.949219 154.902344 31.984375 154.5625 31.984375 154.222656 L 31.984375 142.566406 C 31.984375 142.046875 32.035156 141.53125 32.136719 141.019531 C 32.238281 140.507812 32.386719 140.011719 32.585938 139.53125 C 32.785156 139.050781 33.03125 138.59375 33.320312 138.160156 C 33.609375 137.726562 33.9375 137.328125 34.304688 136.960938 C 34.675781 136.589844 35.074219 136.261719 35.507812 135.972656 C 35.941406 135.683594 36.398438 135.441406 36.878906 135.242188 C 37.359375 135.042969 37.855469 134.890625 38.367188 134.789062 C 38.878906 134.6875 39.394531 134.636719 39.914062 134.636719 C 40.433594 134.636719 40.949219 134.6875 41.460938 134.789062 C 41.972656 134.890625 42.46875 135.042969 42.949219 135.242188 C 43.429688 135.441406 43.886719 135.683594 44.320312 135.972656 C 44.753906 136.261719 45.152344 136.589844 45.523438 136.960938 C 45.890625 137.328125 46.21875 137.726562 46.507812 138.160156 C 46.796875 138.59375 47.042969 139.050781 47.242188 139.53125 C 47.441406 140.011719 47.589844 140.507812 47.691406 141.019531 C 47.792969 141.53125 47.84375 142.046875 47.84375 142.566406 L 47.84375 154.21875 C 47.84375 154.558594 47.878906 154.898438 47.945312 155.234375 C 48.011719 155.566406 48.109375 155.894531 48.238281 156.207031 C 48.371094 156.523438 48.53125 156.824219 48.71875 157.105469 C 48.910156 157.390625 49.125 157.652344 49.367188 157.894531 C 49.609375 158.136719 49.871094 158.351562 50.152344 158.539062 C 50.4375 158.730469 50.738281 158.890625 51.054688 159.019531 C 51.367188 159.152344 51.691406 159.25 52.027344 159.316406 C 52.363281 159.382812 52.699219 159.417969 53.042969 159.417969 L 64.511719 159.417969 C 65.03125 159.417969 65.546875 159.46875 66.058594 159.570312 C 66.570312 159.671875 67.066406 159.820312 67.546875 160.023438 C 68.027344 160.222656 68.484375 160.464844 68.917969 160.753906 C 69.347656 161.042969 69.75 161.375 70.117188 161.742188 C 70.484375 162.109375 70.816406 162.511719 71.105469 162.941406 C 71.394531 163.375 71.636719 163.832031 71.835938 164.316406 C 72.035156 164.796875 72.1875 165.292969 72.285156 165.800781 C 72.386719 166.3125 72.4375 166.828125 72.4375 167.347656 Z M 72.4375 167.347656 " fill-opacity="1" fill-rule="nonzero"/></g><g clip-path="url(#690eafabff)"><path fill="#38b6ff" d="M 117.15625 182.578125 C 117.15625 184.296875 117.074219 186.011719 116.902344 187.722656 C 116.734375 189.433594 116.484375 191.132812 116.148438 192.820312 C 115.8125 194.503906 115.394531 196.171875 114.898438 197.816406 C 114.398438 199.460938 113.820312 201.078125 113.160156 202.664062 C 112.503906 204.253906 111.769531 205.804688 110.960938 207.320312 C 110.148438 208.835938 109.265625 210.308594 108.3125 211.738281 C 107.355469 213.167969 106.332031 214.546875 105.242188 215.875 C 104.152344 217.207031 103 218.476562 101.785156 219.691406 C 100.566406 220.910156 99.296875 222.0625 97.96875 223.152344 C 96.636719 224.242188 95.257812 225.265625 93.828125 226.222656 C 92.398438 227.175781 90.925781 228.058594 89.410156 228.867188 C 87.894531 229.679688 86.34375 230.414062 84.753906 231.070312 C 83.167969 231.730469 81.550781 232.308594 79.90625 232.804688 C 78.261719 233.304688 76.59375 233.722656 74.910156 234.058594 C 73.222656 234.394531 71.523438 234.644531 69.8125 234.8125 C 68.101562 234.980469 66.386719 235.066406 64.667969 235.066406 C 40.8125 235.066406 20.679688 219.152344 14.292969 197.363281 C 22.925781 214.519531 40.691406 226.289062 61.207031 226.289062 C 65.085938 226.296875 68.914062 225.875 72.699219 225.027344 C 76.480469 224.179688 80.125 222.929688 83.632812 221.273438 C 93.921875 216.402344 98 203.902344 92.632812 193.855469 C 89.535156 188.058594 85.492188 183.019531 80.503906 178.738281 C 87.128906 182.707031 92.617188 187.878906 96.972656 194.257812 C 100.382812 199.257812 107.980469 198.398438 110.167969 192.757812 C 111.199219 190.078125 112.007812 187.335938 112.589844 184.523438 C 113.175781 181.710938 113.527344 178.871094 113.648438 176.003906 C 113.769531 173.136719 113.65625 170.277344 113.308594 167.425781 C 112.964844 164.574219 112.386719 161.773438 111.585938 159.015625 C 113.421875 162.671875 114.8125 166.488281 115.753906 170.46875 C 116.695312 174.453125 117.164062 178.488281 117.15625 182.578125 Z M 117.15625 182.578125 " fill-opacity="1" fill-rule="nonzero"/></g><path fill="#38b6ff" d="M 109.671875 183.101562 C 109.671875 183.558594 109.628906 184.007812 109.539062 184.453125 C 109.453125 184.898438 109.320312 185.332031 109.144531 185.753906 C 108.972656 186.171875 108.757812 186.570312 108.507812 186.949219 C 108.253906 187.328125 107.96875 187.675781 107.644531 188 C 107.324219 188.320312 106.972656 188.609375 106.597656 188.859375 C 106.21875 189.113281 105.820312 189.324219 105.398438 189.5 C 104.980469 189.675781 104.546875 189.804688 104.101562 189.894531 C 103.65625 189.984375 103.203125 190.027344 102.75 190.027344 C 102.296875 190.027344 101.84375 189.984375 101.398438 189.894531 C 100.953125 189.804688 100.519531 189.675781 100.101562 189.5 C 99.679688 189.324219 99.28125 189.113281 98.902344 188.859375 C 98.523438 188.609375 98.175781 188.320312 97.855469 188 C 97.53125 187.675781 97.246094 187.328125 96.992188 186.949219 C 96.742188 186.570312 96.527344 186.171875 96.351562 185.753906 C 96.179688 185.332031 96.046875 184.898438 95.960938 184.453125 C 95.871094 184.007812 95.824219 183.558594 95.824219 183.101562 C 95.824219 182.648438 95.871094 182.199219 95.960938 181.753906 C 96.046875 181.304688 96.179688 180.875 96.351562 180.453125 C 96.527344 180.035156 96.742188 179.632812 96.992188 179.257812 C 97.246094 178.878906 97.53125 178.527344 97.855469 178.207031 C 98.175781 177.886719 98.523438 177.597656 98.902344 177.347656 C 99.28125 177.09375 99.679688 176.878906 100.101562 176.707031 C 100.519531 176.53125 100.953125 176.402344 101.398438 176.3125 C 101.84375 176.222656 102.296875 176.179688 102.75 176.179688 C 103.203125 176.179688 103.65625 176.222656 104.101562 176.3125 C 104.546875 176.402344 104.980469 176.53125 105.398438 176.707031 C 105.820312 176.878906 106.21875 177.09375 106.597656 177.347656 C 106.972656 177.597656 107.324219 177.886719 107.644531 178.207031 C 107.96875 178.527344 108.253906 178.878906 108.507812 179.257812 C 108.757812 179.632812 108.972656 180.035156 109.144531 180.453125 C 109.320312 180.875 109.453125 181.304688 109.539062 181.753906 C 109.628906 182.199219 109.671875 182.648438 109.671875 183.101562 Z M 109.671875 183.101562 " fill-opacity="1" fill-rule="nonzero"/><g clip-path="url(#9cd33011d0)"><path fill="#084d22" d="M 118.945312 155.21875 C 119.007812 155.777344 119.160156 156.308594 119.402344 156.8125 C 119.644531 157.320312 119.964844 157.769531 120.359375 158.167969 C 120.757812 158.5625 121.207031 158.882812 121.714844 159.125 C 122.21875 159.367188 122.75 159.519531 123.308594 159.582031 C 125.070312 159.757812 126.839844 159.835938 128.609375 159.824219 C 126.839844 159.808594 125.070312 159.890625 123.308594 160.0625 C 122.75 160.125 122.21875 160.277344 121.714844 160.519531 C 121.207031 160.761719 120.757812 161.082031 120.359375 161.476562 C 119.964844 161.875 119.644531 162.324219 119.402344 162.832031 C 119.160156 163.335938 119.007812 163.871094 118.945312 164.425781 C 118.769531 166.1875 118.691406 167.957031 118.707031 169.726562 C 118.71875 167.957031 118.640625 166.1875 118.464844 164.425781 C 118.402344 163.871094 118.25 163.335938 118.007812 162.832031 C 117.765625 162.324219 117.445312 161.875 117.050781 161.476562 C 116.652344 161.082031 116.203125 160.761719 115.695312 160.519531 C 115.191406 160.277344 114.660156 160.125 114.101562 160.0625 C 112.339844 159.886719 110.574219 159.808594 108.800781 159.824219 C 110.574219 159.835938 112.339844 159.757812 114.101562 159.582031 C 114.660156 159.519531 115.191406 159.367188 115.695312 159.125 C 116.203125 158.882812 116.652344 158.5625 117.050781 158.167969 C 117.445312 157.769531 117.765625 157.320312 118.007812 156.8125 C 118.25 156.308594 118.402344 155.777344 118.464844 155.21875 C 118.640625 153.457031 118.71875 151.691406 118.707031 149.917969 C 118.691406 151.691406 118.769531 153.457031 118.945312 155.21875 Z M 118.945312 155.21875 " fill-opacity="1" fill-rule="nonzero"/></g><path fill="#084d22" d="M 130.003906 162.503906 C 130.035156 162.785156 130.109375 163.054688 130.234375 163.3125 C 130.355469 163.566406 130.519531 163.796875 130.71875 163.996094 C 130.917969 164.195312 131.148438 164.359375 131.402344 164.480469 C 131.660156 164.605469 131.929688 164.679688 132.210938 164.710938 C 133.101562 164.800781 133.996094 164.839844 134.894531 164.835938 C 133.996094 164.828125 133.101562 164.867188 132.210938 164.957031 C 131.929688 164.988281 131.660156 165.0625 131.402344 165.1875 C 131.148438 165.308594 130.917969 165.472656 130.71875 165.671875 C 130.519531 165.871094 130.355469 166.101562 130.234375 166.355469 C 130.109375 166.613281 130.035156 166.882812 130.003906 167.164062 C 129.914062 168.054688 129.875 168.949219 129.882812 169.847656 C 129.890625 168.949219 129.847656 168.054688 129.757812 167.164062 C 129.726562 166.882812 129.652344 166.613281 129.527344 166.355469 C 129.40625 166.101562 129.246094 165.871094 129.042969 165.671875 C 128.84375 165.472656 128.613281 165.308594 128.359375 165.1875 C 128.101562 165.0625 127.832031 164.988281 127.550781 164.957031 C 126.660156 164.867188 125.765625 164.828125 124.871094 164.835938 C 125.765625 164.839844 126.660156 164.800781 127.550781 164.710938 C 127.832031 164.679688 128.101562 164.605469 128.359375 164.480469 C 128.613281 164.359375 128.84375 164.195312 129.042969 163.996094 C 129.246094 163.796875 129.40625 163.566406 129.527344 163.3125 C 129.652344 163.054688 129.726562 162.785156 129.757812 162.503906 C 129.847656 161.613281 129.890625 160.71875 129.882812 159.824219 C 129.875 160.71875 129.914062 161.613281 130.003906 162.503906 Z M 130.003906 162.503906 " fill-opacity="1" fill-rule="nonzero"/><path fill="#084d22" d="M 126.238281 152.613281 C 126.273438 152.96875 126.421875 153.273438 126.671875 153.527344 C 126.925781 153.777344 127.230469 153.921875 127.585938 153.960938 C 128.128906 154.015625 128.675781 154.042969 129.222656 154.035156 C 128.675781 154.03125 128.128906 154.058594 127.585938 154.113281 C 127.230469 154.148438 126.925781 154.296875 126.671875 154.546875 C 126.421875 154.800781 126.273438 155.105469 126.238281 155.460938 C 126.183594 156.003906 126.15625 156.550781 126.160156 157.097656 C 126.167969 156.550781 126.140625 156.003906 126.085938 155.460938 C 126.046875 155.105469 125.902344 154.800781 125.648438 154.546875 C 125.398438 154.296875 125.09375 154.148438 124.738281 154.113281 C 124.195312 154.058594 123.648438 154.03125 123.101562 154.035156 C 123.648438 154.042969 124.195312 154.015625 124.738281 153.960938 C 125.09375 153.921875 125.398438 153.777344 125.648438 153.527344 C 125.902344 153.273438 126.046875 152.96875 126.085938 152.613281 C 126.140625 152.070312 126.167969 151.523438 126.160156 150.976562 C 126.15625 151.523438 126.183594 152.070312 126.238281 152.613281 Z M 126.238281 152.613281 " fill-opacity="1" fill-rule="nonzero"/><g fill="#022031" fill-opacity="1"><g transform="translate(138.086304, 200.451441)"><g><path d="M 1.53125 0 L 1.53125 -34.5625 L 12.0625 -34.5625 L 14.96875 -13.484375 L 17.859375 -34.5625 L 28.484375 -34.5625 L 28.484375 0 L 22.171875 0 L 22.171875 -24.90625 L 18.1875 0 L 11.984375 0 L 7.765625 -24.90625 L 7.765625 0 Z M 1.53125 0 "/></g></g></g><g fill="#022031" fill-opacity="1"><g transform="translate(168.098822, 200.451441)"><g><path d="M 9.65625 0.328125 C 6.625 0.328125 4.453125 -0.503906 3.140625 -2.171875 C 1.828125 -3.835938 1.171875 -6.316406 1.171875 -9.609375 L 1.171875 -21.4375 C 1.171875 -24.15625 1.945312 -26.222656 3.5 -27.640625 C 5.050781 -29.054688 7.222656 -29.765625 10.015625 -29.765625 C 15.671875 -29.765625 18.5 -26.988281 18.5 -21.4375 L 18.5 -19.3125 C 18.5 -17.164062 18.472656 -15.421875 18.421875 -14.078125 L 8.203125 -14.078125 L 8.203125 -8.375 C 8.203125 -7.351562 8.304688 -6.550781 8.515625 -5.96875 C 8.734375 -5.394531 9.191406 -5.109375 9.890625 -5.109375 C 10.429688 -5.109375 10.816406 -5.269531 11.046875 -5.59375 C 11.273438 -5.914062 11.40625 -6.285156 11.4375 -6.703125 C 11.476562 -7.117188 11.5 -7.726562 11.5 -8.53125 L 11.5 -11.390625 L 18.5 -11.390625 L 18.5 -9.703125 C 18.5 -6.265625 17.835938 -3.734375 16.515625 -2.109375 C 15.191406 -0.484375 12.90625 0.328125 9.65625 0.328125 Z M 11.5 -17.578125 L 11.5 -21.359375 C 11.5 -23.484375 10.976562 -24.546875 9.9375 -24.546875 C 8.757812 -24.546875 8.171875 -23.484375 8.171875 -21.359375 L 8.171875 -17.578125 Z M 11.5 -17.578125 "/></g></g></g><g fill="#022031" fill-opacity="1"><g transform="translate(187.731674, 200.451441)"><g><path d="M 7.203125 0.328125 C 5.484375 0.328125 4.1875 -0.078125 3.3125 -0.890625 C 2.445312 -1.710938 1.875 -2.800781 1.59375 -4.15625 C 1.3125 -5.519531 1.171875 -7.257812 1.171875 -9.375 L 1.25 -22.65625 C 1.25 -24.75 1.773438 -26.457031 2.828125 -27.78125 C 3.890625 -29.101562 5.390625 -29.765625 7.328125 -29.765625 C 9.222656 -29.765625 10.644531 -29.132812 11.59375 -27.875 L 11.59375 -34.765625 L 18.625 -34.765625 L 18.625 0 L 11.59375 0 L 11.59375 -3.140625 C 11.1875 -1.984375 10.640625 -1.113281 9.953125 -0.53125 C 9.273438 0.0390625 8.359375 0.328125 7.203125 0.328125 Z M 9.890625 -5.1875 C 10.585938 -5.1875 11.046875 -5.523438 11.265625 -6.203125 C 11.484375 -6.890625 11.59375 -7.8125 11.59375 -8.96875 L 11.59375 -21.28125 C 11.59375 -22.144531 11.46875 -22.867188 11.21875 -23.453125 C 10.976562 -24.046875 10.550781 -24.34375 9.9375 -24.34375 C 9.238281 -24.34375 8.773438 -24.066406 8.546875 -23.515625 C 8.316406 -22.960938 8.203125 -22.21875 8.203125 -21.28125 L 8.203125 -8.890625 C 8.203125 -6.421875 8.765625 -5.1875 9.890625 -5.1875 Z M 9.890625 -5.1875 "/></g></g></g><g fill="#022031" fill-opacity="1"><g transform="translate(207.766836, 200.451441)"><g><path d="M 1.375 -31.421875 L 1.375 -36.328125 L 8.40625 -36.328125 L 8.40625 -31.421875 Z M 1.375 0 L 1.375 -29.453125 L 8.40625 -29.453125 L 8.40625 0 Z M 1.375 0 "/></g></g></g><g fill="#022031" fill-opacity="1"><g transform="translate(217.543037, 200.451441)"><g><path d="M 10.265625 0.328125 C 7.046875 0.328125 4.722656 -0.488281 3.296875 -2.125 C 1.878906 -3.769531 1.171875 -6.28125 1.171875 -9.65625 L 1.171875 -18.75 C 1.171875 -21.300781 1.441406 -23.375 1.984375 -24.96875 C 2.535156 -26.5625 3.460938 -27.757812 4.765625 -28.5625 C 6.066406 -29.363281 7.867188 -29.765625 10.171875 -29.765625 C 12.703125 -29.765625 14.753906 -29.109375 16.328125 -27.796875 C 17.910156 -26.484375 18.703125 -24.648438 18.703125 -22.296875 L 18.703125 -17.78125 L 11.546875 -17.78125 L 11.546875 -21.921875 C 11.546875 -22.703125 11.4375 -23.300781 11.21875 -23.71875 C 11.007812 -24.132812 10.597656 -24.34375 9.984375 -24.34375 C 8.828125 -24.34375 8.25 -23.523438 8.25 -21.890625 L 8.25 -7.609375 C 8.25 -6.929688 8.390625 -6.359375 8.671875 -5.890625 C 8.953125 -5.421875 9.375 -5.1875 9.9375 -5.1875 C 10.5 -5.1875 10.921875 -5.414062 11.203125 -5.875 C 11.484375 -6.332031 11.613281 -6.921875 11.59375 -7.640625 L 11.546875 -12.59375 L 18.703125 -12.59375 L 18.703125 -7.4375 C 18.703125 -5.03125 17.914062 -3.132812 16.34375 -1.75 C 14.78125 -0.363281 12.753906 0.328125 10.265625 0.328125 Z M 10.265625 0.328125 "/></g></g></g><g fill="#022031" fill-opacity="1"><g transform="translate(237.296579, 200.451441)"><g><path d="M 6.765625 0.328125 C 4.484375 0.328125 2.914062 -0.425781 2.0625 -1.9375 C 1.21875 -3.457031 0.796875 -5.628906 0.796875 -8.453125 C 0.796875 -10.753906 1.097656 -12.519531 1.703125 -13.75 C 2.304688 -14.988281 3.144531 -15.894531 4.21875 -16.46875 C 5.289062 -17.050781 6.929688 -17.691406 9.140625 -18.390625 L 11.0625 -19.03125 L 11.0625 -22.046875 C 11.0625 -22.828125 10.90625 -23.425781 10.59375 -23.84375 C 10.289062 -24.257812 9.925781 -24.46875 9.5 -24.46875 C 9.125 -24.46875 8.796875 -24.289062 8.515625 -23.9375 C 8.234375 -23.59375 8.09375 -23.125 8.09375 -22.53125 L 8.09375 -20.765625 L 1.25 -20.765625 L 1.25 -21.71875 C 1.25 -24.625 1.925781 -26.691406 3.28125 -27.921875 C 4.632812 -29.148438 6.835938 -29.765625 9.890625 -29.765625 C 12.335938 -29.765625 14.320312 -29.128906 15.84375 -27.859375 C 17.375 -26.585938 18.140625 -24.785156 18.140625 -22.453125 L 18.140625 0 L 11.140625 0 L 11.140625 -3.5 C 10.796875 -2.289062 10.238281 -1.347656 9.46875 -0.671875 C 8.707031 -0.00390625 7.804688 0.328125 6.765625 0.328125 Z M 9.53125 -5.15625 C 10.070312 -5.15625 10.457031 -5.375 10.6875 -5.8125 C 10.914062 -6.257812 11.03125 -6.800781 11.03125 -7.4375 L 11.03125 -15.65625 C 9.976562 -15.25 9.203125 -14.738281 8.703125 -14.125 C 8.210938 -13.507812 7.96875 -12.648438 7.96875 -11.546875 L 7.96875 -7.765625 C 7.96875 -6.023438 8.488281 -5.15625 9.53125 -5.15625 Z M 9.53125 -5.15625 "/></g></g></g><g fill="#022031" fill-opacity="1"><g transform="translate(256.728276, 200.451441)"><g><path d="M 1.40625 0 L 1.40625 -34.765625 L 8.5625 -34.765625 L 8.5625 0 Z M 1.40625 0 "/></g></g></g><g fill="#022031" fill-opacity="1"><g transform="translate(266.705632, 200.451441)"><g/></g></g><g fill="#022031" fill-opacity="1"><g transform="translate(276.119749, 200.451441)"><g><path d="M 9.578125 0.328125 C 7.054688 0.328125 5.035156 -0.460938 3.515625 -2.046875 C 2.003906 -3.628906 1.25 -5.800781 1.25 -8.5625 L 1.25 -24.5 C 1.25 -27.9375 1.929688 -30.523438 3.296875 -32.265625 C 4.660156 -34.015625 6.804688 -34.890625 9.734375 -34.890625 C 12.285156 -34.890625 14.335938 -34.191406 15.890625 -32.796875 C 17.441406 -31.398438 18.21875 -29.382812 18.21875 -26.75 L 18.21875 -20.796875 L 11.34375 -20.796875 L 11.34375 -25.90625 C 11.34375 -26.90625 11.222656 -27.59375 10.984375 -27.96875 C 10.742188 -28.34375 10.328125 -28.53125 9.734375 -28.53125 C 9.117188 -28.53125 8.695312 -28.3125 8.46875 -27.875 C 8.238281 -27.445312 8.125 -26.816406 8.125 -25.984375 L 8.125 -8.65625 C 8.125 -7.738281 8.257812 -7.070312 8.53125 -6.65625 C 8.800781 -6.238281 9.203125 -6.03125 9.734375 -6.03125 C 10.804688 -6.03125 11.34375 -6.90625 11.34375 -8.65625 L 11.34375 -14.890625 L 18.3125 -14.890625 L 18.3125 -8.375 C 18.3125 -2.570312 15.398438 0.328125 9.578125 0.328125 Z M 9.578125 0.328125 "/></g></g></g><g fill="#022031" fill-opacity="1"><g transform="translate(295.189363, 200.451441)"><g><path d="M 6.765625 0.328125 C 4.484375 0.328125 2.914062 -0.425781 2.0625 -1.9375 C 1.21875 -3.457031 0.796875 -5.628906 0.796875 -8.453125 C 0.796875 -10.753906 1.097656 -12.519531 1.703125 -13.75 C 2.304688 -14.988281 3.144531 -15.894531 4.21875 -16.46875 C 5.289062 -17.050781 6.929688 -17.691406 9.140625 -18.390625 L 11.0625 -19.03125 L 11.0625 -22.046875 C 11.0625 -22.828125 10.90625 -23.425781 10.59375 -23.84375 C 10.289062 -24.257812 9.925781 -24.46875 9.5 -24.46875 C 9.125 -24.46875 8.796875 -24.289062 8.515625 -23.9375 C 8.234375 -23.59375 8.09375 -23.125 8.09375 -22.53125 L 8.09375 -20.765625 L 1.25 -20.765625 L 1.25 -21.71875 C 1.25 -24.625 1.925781 -26.691406 3.28125 -27.921875 C 4.632812 -29.148438 6.835938 -29.765625 9.890625 -29.765625 C 12.335938 -29.765625 14.320312 -29.128906 15.84375 -27.859375 C 17.375 -26.585938 18.140625 -24.785156 18.140625 -22.453125 L 18.140625 0 L 11.140625 0 L 11.140625 -3.5 C 10.796875 -2.289062 10.238281 -1.347656 9.46875 -0.671875 C 8.707031 -0.00390625 7.804688 0.328125 6.765625 0.328125 Z M 9.53125 -5.15625 C 10.070312 -5.15625 10.457031 -5.375 10.6875 -5.8125 C 10.914062 -6.257812 11.03125 -6.800781 11.03125 -7.4375 L 11.03125 -15.65625 C 9.976562 -15.25 9.203125 -14.738281 8.703125 -14.125 C 8.210938 -13.507812 7.96875 -12.648438 7.96875 -11.546875 L 7.96875 -7.765625 C 7.96875 -6.023438 8.488281 -5.15625 9.53125 -5.15625 Z M 9.53125 -5.15625 "/></g></g></g><g fill="#022031" fill-opacity="1"><g transform="translate(314.62106, 200.451441)"><g><path d="M 1.40625 -29.453125 L 8.453125 -29.453125 L 8.453125 -26.1875 C 8.796875 -27.34375 9.40625 -28.234375 10.28125 -28.859375 C 11.15625 -29.492188 12.234375 -29.8125 13.515625 -29.8125 L 13.515625 -23.9375 C 12.523438 -23.9375 11.429688 -23.796875 10.234375 -23.515625 C 9.046875 -23.234375 8.453125 -22.90625 8.453125 -22.53125 L 8.453125 0 L 1.40625 0 Z M 1.40625 -29.453125 "/></g></g></g><g fill="#022031" fill-opacity="1"><g transform="translate(328.460609, 200.451441)"><g><path d="M 9.65625 0.328125 C 6.625 0.328125 4.453125 -0.503906 3.140625 -2.171875 C 1.828125 -3.835938 1.171875 -6.316406 1.171875 -9.609375 L 1.171875 -21.4375 C 1.171875 -24.15625 1.945312 -26.222656 3.5 -27.640625 C 5.050781 -29.054688 7.222656 -29.765625 10.015625 -29.765625 C 15.671875 -29.765625 18.5 -26.988281 18.5 -21.4375 L 18.5 -19.3125 C 18.5 -17.164062 18.472656 -15.421875 18.421875 -14.078125 L 8.203125 -14.078125 L 8.203125 -8.375 C 8.203125 -7.351562 8.304688 -6.550781 8.515625 -5.96875 C 8.734375 -5.394531 9.191406 -5.109375 9.890625 -5.109375 C 10.429688 -5.109375 10.816406 -5.269531 11.046875 -5.59375 C 11.273438 -5.914062 11.40625 -6.285156 11.4375 -6.703125 C 11.476562 -7.117188 11.5 -7.726562 11.5 -8.53125 L 11.5 -11.390625 L 18.5 -11.390625 L 18.5 -9.703125 C 18.5 -6.265625 17.835938 -3.734375 16.515625 -2.109375 C 15.191406 -0.484375 12.90625 0.328125 9.65625 0.328125 Z M 11.5 -17.578125 L 11.5 -21.359375 C 11.5 -23.484375 10.976562 -24.546875 9.9375 -24.546875 C 8.757812 -24.546875 8.171875 -23.484375 8.171875 -21.359375 L 8.171875 -17.578125 Z M 11.5 -17.578125 "/></g></g></g><g fill="#000000" fill-opacity="1"><g transform="translate(138.086304, 225.294028)"><g><path d="M 9.09375 -13.140625 L 9.09375 -13.6875 L 12.9375 -13.6875 L 12.9375 -13.140625 L 11.828125 -13.046875 C 11.617188 -13.015625 11.492188 -12.957031 11.453125 -12.875 C 11.410156 -12.800781 11.390625 -12.53125 11.390625 -12.0625 L 11.390625 -4.65625 C 11.390625 -3.125 11.035156 -1.929688 10.328125 -1.078125 C 9.628906 -0.222656 8.554688 0.203125 7.109375 0.203125 C 5.523438 0.203125 4.3125 -0.257812 3.46875 -1.1875 C 2.632812 -2.113281 2.21875 -3.390625 2.21875 -5.015625 L 2.21875 -12.0625 C 2.21875 -12.53125 2.195312 -12.800781 2.15625 -12.875 C 2.113281 -12.957031 1.984375 -13.015625 1.765625 -13.046875 L 0.671875 -13.140625 L 0.671875 -13.6875 L 5.515625 -13.6875 L 5.515625 -13.140625 L 4.40625 -13.046875 C 4.1875 -13.015625 4.054688 -12.957031 4.015625 -12.875 C 3.984375 -12.800781 3.96875 -12.53125 3.96875 -12.0625 L 3.96875 -4.703125 C 3.96875 -3.273438 4.238281 -2.210938 4.78125 -1.515625 C 5.320312 -0.816406 6.148438 -0.46875 7.265625 -0.46875 C 8.390625 -0.46875 9.234375 -0.820312 9.796875 -1.53125 C 10.359375 -2.238281 10.640625 -3.269531 10.640625 -4.625 L 10.640625 -12.0625 C 10.640625 -12.53125 10.617188 -12.800781 10.578125 -12.875 C 10.546875 -12.957031 10.421875 -13.015625 10.203125 -13.046875 Z M 9.09375 -13.140625 "/></g></g></g><g fill="#000000" fill-opacity="1"><g transform="translate(151.709867, 225.294028)"><g><path d="M 11.953125 -0.515625 L 11.953125 0 L 7.203125 0 L 7.203125 -0.515625 L 8.3125 -0.640625 C 8.53125 -0.671875 8.65625 -0.722656 8.6875 -0.796875 C 8.726562 -0.878906 8.75 -1.15625 8.75 -1.625 L 8.75 -6.640625 C 8.75 -7.628906 8.585938 -8.328125 8.265625 -8.734375 C 7.941406 -9.148438 7.476562 -9.359375 6.875 -9.359375 C 6.4375 -9.359375 5.945312 -9.222656 5.40625 -8.953125 C 4.875 -8.679688 4.375 -8.160156 3.90625 -7.390625 L 3.90625 -1.625 C 3.90625 -1.15625 3.925781 -0.878906 3.96875 -0.796875 C 4.007812 -0.722656 4.132812 -0.671875 4.34375 -0.640625 L 5.453125 -0.515625 L 5.453125 0 L 0.703125 0 L 0.703125 -0.515625 L 1.8125 -0.640625 C 2.03125 -0.671875 2.15625 -0.722656 2.1875 -0.796875 C 2.226562 -0.878906 2.25 -1.15625 2.25 -1.625 L 2.25 -8.328125 C 2.25 -8.796875 2.226562 -9.070312 2.1875 -9.15625 C 2.15625 -9.238281 2.03125 -9.289062 1.8125 -9.3125 L 0.703125 -9.421875 L 0.703125 -9.96875 L 3.796875 -9.96875 L 3.796875 -8.328125 C 4.285156 -8.972656 4.832031 -9.4375 5.4375 -9.71875 C 6.050781 -10.007812 6.664062 -10.15625 7.28125 -10.15625 C 8.28125 -10.15625 9.050781 -9.847656 9.59375 -9.234375 C 10.132812 -8.628906 10.40625 -7.769531 10.40625 -6.65625 L 10.40625 -1.625 C 10.40625 -1.15625 10.425781 -0.878906 10.46875 -0.796875 C 10.507812 -0.722656 10.632812 -0.671875 10.84375 -0.640625 Z M 11.953125 -0.515625 "/></g></g></g><g fill="#000000" fill-opacity="1"><g transform="translate(164.126011, 225.294028)"><g><path d="M 3.0625 -12.21875 C 2.738281 -12.21875 2.472656 -12.320312 2.265625 -12.53125 C 2.054688 -12.738281 1.953125 -13.007812 1.953125 -13.34375 C 1.953125 -13.664062 2.054688 -13.925781 2.265625 -14.125 C 2.472656 -14.320312 2.738281 -14.421875 3.0625 -14.421875 C 3.382812 -14.421875 3.648438 -14.320312 3.859375 -14.125 C 4.066406 -13.925781 4.171875 -13.664062 4.171875 -13.34375 C 4.171875 -13.007812 4.066406 -12.738281 3.859375 -12.53125 C 3.648438 -12.320312 3.382812 -12.21875 3.0625 -12.21875 Z M 0.703125 -9.421875 L 0.703125 -9.96875 L 3.90625 -9.96875 L 3.90625 -1.625 C 3.90625 -1.15625 3.925781 -0.878906 3.96875 -0.796875 C 4.007812 -0.722656 4.132812 -0.671875 4.34375 -0.640625 L 5.453125 -0.515625 L 5.453125 0 L 0.703125 0 L 0.703125 -0.515625 L 1.8125 -0.640625 C 2.03125 -0.671875 2.15625 -0.722656 2.1875 -0.796875 C 2.226562 -0.878906 2.25 -1.15625 2.25 -1.625 L 2.25 -8.328125 C 2.25 -8.796875 2.226562 -9.070312 2.1875 -9.15625 C 2.15625 -9.238281 2.03125 -9.289062 1.8125 -9.3125 Z M 0.703125 -9.421875 "/></g></g></g><g fill="#000000" fill-opacity="1"><g transform="translate(170.142916, 225.294028)"><g><path d="M 8.921875 -8.453125 L 5.984375 0 L 4.671875 0 L 1.703125 -8.453125 C 1.578125 -8.835938 1.476562 -9.070312 1.40625 -9.15625 C 1.34375 -9.238281 1.203125 -9.289062 0.984375 -9.3125 L -0.046875 -9.421875 L -0.046875 -9.96875 L 4.546875 -9.96875 L 4.546875 -9.421875 L 3.515625 -9.3125 C 3.304688 -9.289062 3.191406 -9.242188 3.171875 -9.171875 C 3.160156 -9.097656 3.222656 -8.859375 3.359375 -8.453125 L 5.796875 -1.453125 L 8.1875 -8.453125 C 8.320312 -8.859375 8.382812 -9.097656 8.375 -9.171875 C 8.363281 -9.242188 8.25 -9.289062 8.03125 -9.3125 L 6.984375 -9.421875 L 6.984375 -9.96875 L 10.640625 -9.96875 L 10.640625 -9.421875 L 9.625 -9.3125 C 9.40625 -9.289062 9.265625 -9.242188 9.203125 -9.171875 C 9.140625 -9.097656 9.046875 -8.859375 8.921875 -8.453125 Z M 8.921875 -8.453125 "/></g></g></g><g fill="#000000" fill-opacity="1"><g transform="translate(180.747962, 225.294028)"><g><path d="M 9.28125 -2.296875 C 9.039062 -1.378906 8.585938 -0.734375 7.921875 -0.359375 C 7.253906 0.015625 6.519531 0.203125 5.71875 0.203125 C 4.226562 0.203125 3.113281 -0.25 2.375 -1.15625 C 1.632812 -2.0625 1.265625 -3.273438 1.265625 -4.796875 L 1.265625 -5.1875 C 1.265625 -6.695312 1.617188 -7.898438 2.328125 -8.796875 C 3.046875 -9.703125 4.082031 -10.15625 5.4375 -10.15625 C 6.15625 -10.15625 6.8125 -10.007812 7.40625 -9.71875 C 8.007812 -9.425781 8.488281 -8.988281 8.84375 -8.40625 C 9.195312 -7.832031 9.375 -7.117188 9.375 -6.265625 C 9.375 -5.859375 9.332031 -5.429688 9.25 -4.984375 L 3.078125 -4.984375 L 3.078125 -4.390625 C 3.078125 -2.984375 3.296875 -1.972656 3.734375 -1.359375 C 4.171875 -0.742188 4.878906 -0.4375 5.859375 -0.4375 C 6.472656 -0.4375 6.984375 -0.597656 7.390625 -0.921875 C 7.804688 -1.242188 8.082031 -1.800781 8.21875 -2.59375 Z M 5.4375 -9.515625 C 4.644531 -9.515625 4.050781 -9.210938 3.65625 -8.609375 C 3.269531 -8.003906 3.078125 -7.015625 3.078125 -5.640625 L 7.609375 -5.640625 L 7.609375 -5.703125 C 7.628906 -5.867188 7.644531 -6.035156 7.65625 -6.203125 C 7.675781 -6.367188 7.6875 -6.519531 7.6875 -6.65625 C 7.6875 -7.664062 7.476562 -8.394531 7.0625 -8.84375 C 6.644531 -9.289062 6.101562 -9.515625 5.4375 -9.515625 Z M 5.4375 -9.515625 "/></g></g></g><g fill="#000000" fill-opacity="1"><g transform="translate(191.312753, 225.294028)"><g><path d="M 0.703125 -9.421875 L 0.703125 -9.96875 L 3.796875 -9.96875 L 3.796875 -8.359375 C 4.273438 -8.984375 4.75 -9.4375 5.21875 -9.71875 C 5.695312 -10.007812 6.1875 -10.15625 6.6875 -10.15625 C 7.113281 -10.15625 7.515625 -10.023438 7.890625 -9.765625 C 8.265625 -9.515625 8.578125 -9.109375 8.828125 -8.546875 L 7.53125 -7.765625 C 7.320312 -8.253906 7.085938 -8.59375 6.828125 -8.78125 C 6.578125 -8.96875 6.300781 -9.0625 6 -9.0625 C 5.664062 -9.0625 5.332031 -8.953125 5 -8.734375 C 4.675781 -8.515625 4.3125 -8.113281 3.90625 -7.53125 L 3.90625 -1.625 C 3.90625 -1.15625 3.925781 -0.878906 3.96875 -0.796875 C 4.007812 -0.710938 4.132812 -0.660156 4.34375 -0.640625 L 5.859375 -0.515625 L 5.859375 0 L 0.703125 0 L 0.703125 -0.515625 L 1.8125 -0.640625 C 2.03125 -0.671875 2.15625 -0.722656 2.1875 -0.796875 C 2.226562 -0.878906 2.25 -1.15625 2.25 -1.625 L 2.25 -8.328125 C 2.25 -8.796875 2.226562 -9.070312 2.1875 -9.15625 C 2.15625 -9.238281 2.03125 -9.289062 1.8125 -9.3125 Z M 0.703125 -9.421875 "/></g></g></g><g fill="#000000" fill-opacity="1"><g transform="translate(200.146943, 225.294028)"><g><path d="M 4.953125 -4.0625 L 3.71875 -4.359375 C 2.039062 -4.796875 1.203125 -5.765625 1.203125 -7.265625 C 1.203125 -7.765625 1.316406 -8.234375 1.546875 -8.671875 C 1.773438 -9.117188 2.140625 -9.476562 2.640625 -9.75 C 3.148438 -10.019531 3.800781 -10.15625 4.59375 -10.15625 C 5.476562 -10.15625 6.1875 -10.007812 6.71875 -9.71875 C 7.257812 -9.425781 7.632812 -9.046875 7.84375 -8.578125 C 8.0625 -8.109375 8.128906 -7.597656 8.046875 -7.046875 L 6.484375 -6.765625 C 6.640625 -7.628906 6.546875 -8.300781 6.203125 -8.78125 C 5.867188 -9.269531 5.3125 -9.515625 4.53125 -9.515625 C 3.925781 -9.515625 3.441406 -9.363281 3.078125 -9.0625 C 2.710938 -8.757812 2.53125 -8.320312 2.53125 -7.75 C 2.53125 -7.320312 2.664062 -6.941406 2.9375 -6.609375 C 3.207031 -6.285156 3.65625 -6.039062 4.28125 -5.875 L 5.546875 -5.578125 C 6.429688 -5.359375 7.117188 -5.015625 7.609375 -4.546875 C 8.109375 -4.078125 8.359375 -3.460938 8.359375 -2.703125 C 8.359375 -1.835938 8.046875 -1.132812 7.421875 -0.59375 C 6.796875 -0.0625 5.90625 0.203125 4.75 0.203125 C 4.195312 0.203125 3.660156 0.117188 3.140625 -0.046875 C 2.628906 -0.210938 2.179688 -0.476562 1.796875 -0.84375 C 1.421875 -1.21875 1.144531 -1.703125 0.96875 -2.296875 L 2.09375 -2.703125 C 2.238281 -1.847656 2.554688 -1.253906 3.046875 -0.921875 C 3.546875 -0.585938 4.117188 -0.421875 4.765625 -0.421875 C 5.140625 -0.421875 5.5 -0.476562 5.84375 -0.59375 C 6.1875 -0.71875 6.460938 -0.910156 6.671875 -1.171875 C 6.890625 -1.429688 7 -1.769531 7 -2.1875 C 7 -2.625 6.851562 -2.992188 6.5625 -3.296875 C 6.269531 -3.609375 5.734375 -3.863281 4.953125 -4.0625 Z M 4.953125 -4.0625 "/></g></g></g><g fill="#000000" fill-opacity="1"><g transform="translate(209.685449, 225.294028)"><g><path d="M 3.0625 -12.21875 C 2.738281 -12.21875 2.472656 -12.320312 2.265625 -12.53125 C 2.054688 -12.738281 1.953125 -13.007812 1.953125 -13.34375 C 1.953125 -13.664062 2.054688 -13.925781 2.265625 -14.125 C 2.472656 -14.320312 2.738281 -14.421875 3.0625 -14.421875 C 3.382812 -14.421875 3.648438 -14.320312 3.859375 -14.125 C 4.066406 -13.925781 4.171875 -13.664062 4.171875 -13.34375 C 4.171875 -13.007812 4.066406 -12.738281 3.859375 -12.53125 C 3.648438 -12.320312 3.382812 -12.21875 3.0625 -12.21875 Z M 0.703125 -9.421875 L 0.703125 -9.96875 L 3.90625 -9.96875 L 3.90625 -1.625 C 3.90625 -1.15625 3.925781 -0.878906 3.96875 -0.796875 C 4.007812 -0.722656 4.132812 -0.671875 4.34375 -0.640625 L 5.453125 -0.515625 L 5.453125 0 L 0.703125 0 L 0.703125 -0.515625 L 1.8125 -0.640625 C 2.03125 -0.671875 2.15625 -0.722656 2.1875 -0.796875 C 2.226562 -0.878906 2.25 -1.15625 2.25 -1.625 L 2.25 -8.328125 C 2.25 -8.796875 2.226562 -9.070312 2.1875 -9.15625 C 2.15625 -9.238281 2.03125 -9.289062 1.8125 -9.3125 Z M 0.703125 -9.421875 "/></g></g></g><g fill="#000000" fill-opacity="1"><g transform="translate(215.702354, 225.294028)"><g><path d="M 7.34375 -2.046875 C 7.144531 -1.273438 6.828125 -0.707031 6.390625 -0.34375 C 5.960938 0.0195312 5.414062 0.203125 4.75 0.203125 C 4.101562 0.203125 3.578125 0.0546875 3.171875 -0.234375 C 2.773438 -0.523438 2.484375 -0.90625 2.296875 -1.375 C 2.109375 -1.84375 2.015625 -2.332031 2.015625 -2.84375 L 2.015625 -8.328125 C 2.015625 -8.796875 1.992188 -9.070312 1.953125 -9.15625 C 1.921875 -9.238281 1.789062 -9.289062 1.5625 -9.3125 L 0.46875 -9.421875 L 0.46875 -9.96875 L 2.015625 -9.96875 L 2.015625 -12.59375 L 3.65625 -12.9375 L 3.65625 -9.96875 L 6.9375 -9.96875 L 6.9375 -9.3125 L 3.65625 -9.3125 L 3.65625 -2.671875 C 3.65625 -1.828125 3.769531 -1.242188 4 -0.921875 C 4.238281 -0.597656 4.554688 -0.4375 4.953125 -0.4375 C 5.335938 -0.4375 5.632812 -0.582031 5.84375 -0.875 C 6.050781 -1.175781 6.203125 -1.660156 6.296875 -2.328125 Z M 7.34375 -2.046875 "/></g></g></g><g fill="#000000" fill-opacity="1"><g transform="translate(223.490116, 225.294028)"><g><path d="M 5.640625 1 C 5.335938 1.820312 5.007812 2.488281 4.65625 3 C 4.3125 3.519531 3.898438 3.894531 3.421875 4.125 C 2.941406 4.363281 2.335938 4.484375 1.609375 4.484375 L 1.609375 2.875 C 2.578125 2.875 3.304688 2.722656 3.796875 2.421875 C 4.296875 2.117188 4.691406 1.5625 4.984375 0.75 L 5.25 0 L 4.671875 0 L 1.703125 -8.453125 C 1.578125 -8.835938 1.476562 -9.066406 1.40625 -9.140625 C 1.34375 -9.210938 1.203125 -9.265625 0.984375 -9.296875 L -0.046875 -9.421875 L -0.046875 -9.96875 L 4.546875 -9.96875 L 4.546875 -9.421875 L 3.515625 -9.296875 C 3.328125 -9.285156 3.21875 -9.238281 3.1875 -9.15625 C 3.164062 -9.070312 3.222656 -8.835938 3.359375 -8.453125 L 5.78125 -1.484375 L 8.21875 -8.46875 C 8.332031 -8.863281 8.378906 -9.09375 8.359375 -9.15625 C 8.335938 -9.21875 8.226562 -9.265625 8.03125 -9.296875 L 6.984375 -9.421875 L 6.984375 -9.96875 L 10.671875 -9.96875 L 10.671875 -9.421875 L 9.640625 -9.296875 C 9.441406 -9.265625 9.304688 -9.21875 9.234375 -9.15625 C 9.171875 -9.09375 9.070312 -8.863281 8.9375 -8.46875 Z M 5.640625 1 "/></g></g></g><g fill="#000000" fill-opacity="1"><g transform="translate(234.11529, 225.294028)"><g/></g></g><g fill="#000000" fill-opacity="1"><g transform="translate(238.683304, 225.294028)"><g><path d="M 9.96875 -5.1875 L 9.96875 -4.796875 C 9.96875 -3.273438 9.585938 -2.0625 8.828125 -1.15625 C 8.066406 -0.25 6.988281 0.203125 5.59375 0.203125 C 4.207031 0.203125 3.132812 -0.25 2.375 -1.15625 C 1.625 -2.0625 1.25 -3.273438 1.25 -4.796875 L 1.25 -5.1875 C 1.25 -6.695312 1.625 -7.898438 2.375 -8.796875 C 3.125 -9.703125 4.195312 -10.15625 5.59375 -10.15625 C 6.988281 -10.15625 8.066406 -9.703125 8.828125 -8.796875 C 9.585938 -7.898438 9.96875 -6.695312 9.96875 -5.1875 Z M 8.15625 -5.59375 C 8.15625 -6.988281 7.9375 -7.988281 7.5 -8.59375 C 7.0625 -9.207031 6.425781 -9.515625 5.59375 -9.515625 C 4.769531 -9.515625 4.140625 -9.207031 3.703125 -8.59375 C 3.273438 -7.988281 3.0625 -6.988281 3.0625 -5.59375 L 3.0625 -4.390625 C 3.0625 -2.984375 3.273438 -1.972656 3.703125 -1.359375 C 4.140625 -0.742188 4.769531 -0.4375 5.59375 -0.4375 C 6.425781 -0.4375 7.0625 -0.742188 7.5 -1.359375 C 7.9375 -1.972656 8.15625 -2.984375 8.15625 -4.390625 Z M 8.15625 -5.59375 "/></g></g></g><g fill="#000000" fill-opacity="1"><g transform="translate(249.892045, 225.294028)"><g><path d="M 5.859375 -0.515625 L 5.859375 0 L 0.703125 0 L 0.703125 -0.515625 L 1.8125 -0.640625 C 2.03125 -0.671875 2.15625 -0.722656 2.1875 -0.796875 C 2.226562 -0.878906 2.25 -1.15625 2.25 -1.625 L 2.25 -8.328125 C 2.25 -8.796875 2.234375 -9.070312 2.203125 -9.15625 C 2.171875 -9.238281 2.039062 -9.289062 1.8125 -9.3125 L 0.703125 -9.421875 L 0.703125 -9.96875 L 2.25 -9.96875 L 2.25 -11.40625 C 2.25 -12.039062 2.347656 -12.640625 2.546875 -13.203125 C 2.742188 -13.765625 3.082031 -14.21875 3.5625 -14.5625 C 4.039062 -14.914062 4.703125 -15.09375 5.546875 -15.09375 C 6.660156 -15.09375 7.484375 -14.789062 8.015625 -14.1875 C 8.554688 -13.582031 8.753906 -12.84375 8.609375 -11.96875 L 7.046875 -11.75 C 7.160156 -12.675781 7.09375 -13.359375 6.84375 -13.796875 C 6.601562 -14.234375 6.171875 -14.453125 5.546875 -14.453125 C 5.203125 -14.453125 4.90625 -14.375 4.65625 -14.21875 C 4.40625 -14.0625 4.21875 -13.785156 4.09375 -13.390625 C 3.96875 -12.992188 3.90625 -12.425781 3.90625 -11.6875 L 3.90625 -9.96875 L 7.109375 -9.96875 L 7.109375 -9.3125 L 3.90625 -9.3125 L 3.90625 -1.625 C 3.90625 -1.15625 3.925781 -0.878906 3.96875 -0.796875 C 4.007812 -0.710938 4.132812 -0.660156 4.34375 -0.640625 Z M 5.859375 -0.515625 "/></g></g></g><g fill="#000000" fill-opacity="1"><g transform="translate(257.096225, 225.294028)"><g/></g></g><g fill="#000000" fill-opacity="1"><g transform="translate(261.664239, 225.294028)"><g><path d="M 0.96875 -13.140625 L 0.96875 -13.6875 L 6.6875 -13.6875 C 8.320312 -13.6875 9.570312 -13.15625 10.4375 -12.09375 C 11.3125 -11.03125 11.75 -9.535156 11.75 -7.609375 L 11.75 -6.09375 C 11.75 -4.15625 11.3125 -2.65625 10.4375 -1.59375 C 9.570312 -0.53125 8.320312 0 6.6875 0 L 0.96875 0 L 0.96875 -0.515625 L 2.078125 -0.640625 C 2.285156 -0.671875 2.410156 -0.722656 2.453125 -0.796875 C 2.492188 -0.878906 2.515625 -1.15625 2.515625 -1.625 L 2.515625 -12.0625 C 2.515625 -12.53125 2.492188 -12.800781 2.453125 -12.875 C 2.410156 -12.957031 2.285156 -13.015625 2.078125 -13.046875 Z M 6.640625 -13.046875 L 4.265625 -13.046875 L 4.265625 -0.640625 L 6.640625 -0.640625 C 7.367188 -0.640625 7.96875 -0.773438 8.4375 -1.046875 C 8.90625 -1.316406 9.253906 -1.773438 9.484375 -2.421875 C 9.722656 -3.078125 9.84375 -3.96875 9.84375 -5.09375 L 9.84375 -8.609375 C 9.84375 -9.722656 9.722656 -10.601562 9.484375 -11.25 C 9.253906 -11.894531 8.90625 -12.351562 8.4375 -12.625 C 7.96875 -12.90625 7.367188 -13.046875 6.640625 -13.046875 Z M 6.640625 -13.046875 "/></g></g></g><g fill="#000000" fill-opacity="1"><g transform="translate(274.905452, 225.294028)"><g><path d="M 11.8125 -0.515625 L 11.8125 0 L 7.0625 0 L 7.0625 -0.515625 L 8.171875 -0.640625 C 8.390625 -0.671875 8.515625 -0.722656 8.546875 -0.796875 C 8.585938 -0.878906 8.609375 -1.15625 8.609375 -1.625 L 8.609375 -6.640625 C 8.609375 -7.628906 8.445312 -8.328125 8.125 -8.734375 C 7.800781 -9.148438 7.347656 -9.359375 6.765625 -9.359375 C 6.304688 -9.359375 5.804688 -9.222656 5.265625 -8.953125 C 4.734375 -8.679688 4.234375 -8.148438 3.765625 -7.359375 L 3.765625 -1.625 C 3.765625 -1.15625 3.785156 -0.878906 3.828125 -0.796875 C 3.867188 -0.722656 3.992188 -0.671875 4.203125 -0.640625 L 5.3125 -0.515625 L 5.3125 0 L 0.5625 0 L 0.5625 -0.515625 L 1.671875 -0.640625 C 1.890625 -0.671875 2.015625 -0.722656 2.046875 -0.796875 C 2.085938 -0.878906 2.109375 -1.15625 2.109375 -1.625 L 2.109375 -13.265625 C 2.109375 -13.734375 2.085938 -14.003906 2.046875 -14.078125 C 2.015625 -14.160156 1.890625 -14.21875 1.671875 -14.25 L 0.5625 -14.34375 L 0.5625 -14.890625 L 3.765625 -14.890625 L 3.765625 -8.4375 C 4.234375 -9.039062 4.769531 -9.476562 5.375 -9.75 C 5.976562 -10.019531 6.578125 -10.15625 7.171875 -10.15625 C 8.160156 -10.15625 8.921875 -9.847656 9.453125 -9.234375 C 9.992188 -8.628906 10.265625 -7.769531 10.265625 -6.65625 L 10.265625 -1.625 C 10.265625 -1.15625 10.285156 -0.878906 10.328125 -0.796875 C 10.367188 -0.722656 10.492188 -0.671875 10.703125 -0.640625 Z M 11.8125 -0.515625 "/></g></g></g><g fill="#000000" fill-opacity="1"><g transform="translate(287.180732, 225.294028)"><g><path d="M 9 0.140625 C 7.945312 0.140625 7.328125 -0.34375 7.140625 -1.3125 C 6.671875 -0.769531 6.15625 -0.378906 5.59375 -0.140625 C 5.03125 0.0859375 4.472656 0.203125 3.921875 0.203125 C 2.984375 0.203125 2.289062 -0.0546875 1.84375 -0.578125 C 1.40625 -1.109375 1.1875 -1.738281 1.1875 -2.46875 C 1.1875 -3.257812 1.457031 -3.882812 2 -4.34375 C 2.539062 -4.8125 3.484375 -5.046875 4.828125 -5.046875 L 7.109375 -5.046875 L 7.109375 -6.6875 C 7.109375 -7.757812 6.921875 -8.5 6.546875 -8.90625 C 6.179688 -9.3125 5.679688 -9.515625 5.046875 -9.515625 C 4.648438 -9.515625 4.289062 -9.429688 3.96875 -9.265625 C 3.644531 -9.109375 3.410156 -8.816406 3.265625 -8.390625 C 3.128906 -7.972656 3.113281 -7.363281 3.21875 -6.5625 L 1.625 -6.796875 C 1.5625 -7.429688 1.644531 -8 1.875 -8.5 C 2.113281 -9 2.503906 -9.398438 3.046875 -9.703125 C 3.585938 -10.003906 4.269531 -10.15625 5.09375 -10.15625 C 6.070312 -10.15625 6.820312 -9.988281 7.34375 -9.65625 C 7.863281 -9.332031 8.226562 -8.910156 8.4375 -8.390625 C 8.644531 -7.867188 8.75 -7.300781 8.75 -6.6875 L 8.75 -2.15625 C 8.75 -1.46875 8.828125 -1.035156 8.984375 -0.859375 C 9.140625 -0.691406 9.3125 -0.609375 9.5 -0.609375 C 9.625 -0.609375 9.75 -0.632812 9.875 -0.6875 C 10.007812 -0.75 10.160156 -0.847656 10.328125 -0.984375 L 10.6875 -0.484375 C 10.488281 -0.304688 10.25 -0.15625 9.96875 -0.03125 C 9.695312 0.0820312 9.375 0.140625 9 0.140625 Z M 4.484375 -0.640625 C 4.859375 -0.640625 5.265625 -0.742188 5.703125 -0.953125 C 6.140625 -1.160156 6.609375 -1.582031 7.109375 -2.21875 L 7.109375 -4.40625 L 5.046875 -4.40625 C 4.296875 -4.40625 3.75 -4.253906 3.40625 -3.953125 C 3.0625 -3.648438 2.890625 -3.1875 2.890625 -2.5625 C 2.890625 -1.957031 3.019531 -1.484375 3.28125 -1.140625 C 3.550781 -0.804688 3.953125 -0.640625 4.484375 -0.640625 Z M 4.484375 -0.640625 "/></g></g></g><g fill="#000000" fill-opacity="1"><g transform="translate(298.047378, 225.294028)"><g><path d="M 0.5625 -14.34375 L 0.5625 -14.890625 L 3.765625 -14.890625 L 3.765625 -4.59375 L 7.5625 -8.453125 C 7.957031 -8.835938 8.164062 -9.070312 8.1875 -9.15625 C 8.21875 -9.238281 8.117188 -9.289062 7.890625 -9.3125 L 6.859375 -9.421875 L 6.859375 -9.96875 L 10.75 -9.96875 L 10.75 -9.421875 L 9.71875 -9.3125 C 9.601562 -9.300781 9.503906 -9.28125 9.421875 -9.25 C 9.335938 -9.21875 9.234375 -9.144531 9.109375 -9.03125 C 8.984375 -8.914062 8.785156 -8.722656 8.515625 -8.453125 L 6.296875 -6.21875 L 9.25 -1.515625 C 9.425781 -1.242188 9.554688 -1.050781 9.640625 -0.9375 C 9.734375 -0.820312 9.816406 -0.75 9.890625 -0.71875 C 9.972656 -0.6875 10.082031 -0.660156 10.21875 -0.640625 L 11.265625 -0.515625 L 11.265625 0 L 8.234375 0 L 5.171875 -5.078125 L 3.765625 -3.640625 L 3.765625 -1.625 C 3.765625 -1.15625 3.785156 -0.878906 3.828125 -0.796875 C 3.867188 -0.722656 3.992188 -0.671875 4.203125 -0.640625 L 5.3125 -0.515625 L 5.3125 0 L 0.5625 0 L 0.5625 -0.515625 L 1.671875 -0.640625 C 1.890625 -0.671875 2.015625 -0.722656 2.046875 -0.796875 C 2.085938 -0.878906 2.109375 -1.15625 2.109375 -1.625 L 2.109375 -13.265625 C 2.109375 -13.734375 2.085938 -14.003906 2.046875 -14.078125 C 2.015625 -14.160156 1.890625 -14.21875 1.671875 -14.25 Z M 0.5625 -14.34375 "/></g></g></g><g fill="#000000" fill-opacity="1"><g transform="translate(309.356742, 225.294028)"><g><path d="M 9 0.140625 C 7.945312 0.140625 7.328125 -0.34375 7.140625 -1.3125 C 6.671875 -0.769531 6.15625 -0.378906 5.59375 -0.140625 C 5.03125 0.0859375 4.472656 0.203125 3.921875 0.203125 C 2.984375 0.203125 2.289062 -0.0546875 1.84375 -0.578125 C 1.40625 -1.109375 1.1875 -1.738281 1.1875 -2.46875 C 1.1875 -3.257812 1.457031 -3.882812 2 -4.34375 C 2.539062 -4.8125 3.484375 -5.046875 4.828125 -5.046875 L 7.109375 -5.046875 L 7.109375 -6.6875 C 7.109375 -7.757812 6.921875 -8.5 6.546875 -8.90625 C 6.179688 -9.3125 5.679688 -9.515625 5.046875 -9.515625 C 4.648438 -9.515625 4.289062 -9.429688 3.96875 -9.265625 C 3.644531 -9.109375 3.410156 -8.816406 3.265625 -8.390625 C 3.128906 -7.972656 3.113281 -7.363281 3.21875 -6.5625 L 1.625 -6.796875 C 1.5625 -7.429688 1.644531 -8 1.875 -8.5 C 2.113281 -9 2.503906 -9.398438 3.046875 -9.703125 C 3.585938 -10.003906 4.269531 -10.15625 5.09375 -10.15625 C 6.070312 -10.15625 6.820312 -9.988281 7.34375 -9.65625 C 7.863281 -9.332031 8.226562 -8.910156 8.4375 -8.390625 C 8.644531 -7.867188 8.75 -7.300781 8.75 -6.6875 L 8.75 -2.15625 C 8.75 -1.46875 8.828125 -1.035156 8.984375 -0.859375 C 9.140625 -0.691406 9.3125 -0.609375 9.5 -0.609375 C 9.625 -0.609375 9.75 -0.632812 9.875 -0.6875 C 10.007812 -0.75 10.160156 -0.847656 10.328125 -0.984375 L 10.6875 -0.484375 C 10.488281 -0.304688 10.25 -0.15625 9.96875 -0.03125 C 9.695312 0.0820312 9.375 0.140625 9 0.140625 Z M 4.484375 -0.640625 C 4.859375 -0.640625 5.265625 -0.742188 5.703125 -0.953125 C 6.140625 -1.160156 6.609375 -1.582031 7.109375 -2.21875 L 7.109375 -4.40625 L 5.046875 -4.40625 C 4.296875 -4.40625 3.75 -4.253906 3.40625 -3.953125 C 3.0625 -3.648438 2.890625 -3.1875 2.890625 -2.5625 C 2.890625 -1.957031 3.019531 -1.484375 3.28125 -1.140625 C 3.550781 -0.804688 3.953125 -0.640625 4.484375 -0.640625 Z M 4.484375 -0.640625 "/></g></g></g></svg>